<svg width="48" height="48" viewBox="0 0 48 48" fill="none" xmlns="http://www.w3.org/2000/svg">
<path d="M32 30C35.3137 30 38 27.3137 38 24C38 22.3431 37.3284 20.8431 36.2426 19.7574L27.7574 28.2426C28.8431 29.3284 30.3431 30 32 30Z"/>
<path d="M12 40C7.02944 40 3 35.9706 3 31V14H0V8H9V31C9 32.6569 10.3431 34 12 34H32C37.5228 34 42 29.5228 42 24C42 18.4772 37.5228 14 32 14H24V17H18V8H32C40.8366 8 48 15.1634 48 24C48 32.8366 40.8366 40 32 40H12Z" fill="white"/>
<path d="M13 24C13 27.3137 15.6863 30 19 30C20.6569 30 22.1569 29.3284 23.2426 28.2426L14.7574 19.7574C13.6716 20.8431 13 22.3431 13 24Z"/>
<path fill-rule="evenodd" clip-rule="evenodd" d="M27.7574 28.2426C28.8431 29.3284 30.3431 30 32 30C35.3137 30 38 27.3137 38 24C38 22.3431 37.3284 20.8431 36.2426 19.7574L27.7574 28.2426Z"/>
<style>
    path { fill: #000; }
    @media (prefers-color-scheme: dark) {
        path { fill: #FFF; }
    }
</style>
</svg>
