<svg width="32" height="32" viewBox="0 0 32 32" fill="none" xmlns="http://www.w3.org/2000/svg">
<path d="M13 19V21H14V19H13Z" fill="white"/>
<path d="M18 19V21H19V19H18Z" fill="white"/>
<path fill-rule="evenodd" clip-rule="evenodd" d="M13 21V19H14V21H13ZM18 19V21H19V19H18Z" fill="white"/>
<path fill-rule="evenodd" clip-rule="evenodd" d="M5 27H4V23H5V22H6V21H7V20H8V18H9V16H10V13H11V11H12V7H10V4H22V7H20V11H21V13H22V16H23V18H24V20H25V21H26V22H27V23H28V27H27V28H5V27ZM5 26V24H6V23H7V22H8V21H9V19H10V17H11V14H12V12H13V6H11V5H21V6H19V12H20V14H21V17H22V19H23V21H24V22H25V23H26V24H27V26H26V27H6V26H5Z" fill="white"/>
<path fill-rule="evenodd" clip-rule="evenodd" d="M7 24V26H25V24H24V23H23V22H22V20H21V18H20V15H19V14H18V13H17V14H15V13H13V15H12V18H15V22H12V18H11V20H10V22H9V23H8V24H7ZM17 22V18H20V22H17Z" fill="white"/>
</svg>
