<svg width="48" height="48" viewBox="0 0 48 48" fill="none" xmlns="http://www.w3.org/2000/svg">
<path fill-rule="evenodd" clip-rule="evenodd" d="M19 30C18.9151 30 18.8306 29.9982 18.7466 29.9947C18.149 29.9699 17.5739 29.8577 17.0339 29.6705C14.7617 28.8827 13.1097 26.7679 13.0053 24.2534C13.0018 24.1694 13 24.0849 13 24C13 22.3431 13.6716 20.8431 14.7574 19.7574L22.7113 27.7113L23.2426 28.2426C23.1756 28.3097 23.1069 28.3752 23.0368 28.439C21.971 29.4088 20.5545 30 19 30Z" fill="white"/>
<path fill-rule="evenodd" clip-rule="evenodd" d="M32 30C35.3137 30 38 27.3137 38 24C38 22.1168 37.1324 20.4363 35.7751 19.3362L27.6816 28.1655C28.7728 29.2965 30.3043 30 32 30Z" fill="white"/>
<path d="M12 34C10.3431 34 9 32.6569 9 31V8H0V14H3V32C3 36.4183 6.58172 40 11 40H32C40.8366 40 48 32.8366 48 24C48 15.1634 40.8366 8 32 8H18V16.248V17H24V14H32C37.5228 14 42 18.4772 42 24C42 29.5228 37.5228 34 32 34H12Z" fill="white"/>
</svg>
